<svg xmlns="http://www.w3.org/2000/svg" viewBox="0 0 100 100">
    <rect width="100" height="99.998" y="163" rx="7.423" ry="7.453" fill="#3b3c3d" fill-rule="evenodd" transform="translate(0 -163)"/>
    <g fill="#fff" fill-rule="evenodd">
        <path d="M66.541 67.837a16.569 14.331 0 0 1-16.569 14.331 16.569 14.331 0 0 1-16.568-14.33 16.569 14.331 0 0 1 16.568-14.332 16.569 14.331 0 0 1 16.569 14.331z"/>
        <path d="M33.404 67.837h33.137V100H33.404z"/>
    </g>
    <path d="M68.853 28.98a19.005 16.837 0 0 1-19.005 16.838A19.005 16.837 0 0 1 30.844 28.98a19.005 16.837 0 0 1 19.004-16.838A19.005 16.837 0 0 1 68.853 28.98z" fill="#8ccc25"/>
</svg>
